<svg class="svg-icon" style="width: 1em; height: 1em;vertical-align: middle;fill: currentColor;overflow: hidden;" viewBox="0 0 1024 1024" version="1.1" xmlns="http://www.w3.org/2000/svg"><path d="M600.816327 854.204082H423.183673c-60.081633 0-116.506122-23.510204-158.824489-66.351021s-66.35102-98.742857-66.351021-158.82449V368.84898c0-60.081633 23.510204-116.506122 66.351021-158.82449S363.102041 144.195918 423.183673 144.195918h177.632654c60.081633 0 116.506122 23.510204 158.824489 66.351021S825.469388 309.289796 825.469388 368.84898v260.179591c0 60.081633-23.510204 116.506122-66.351021 158.82449s-98.220408 66.35102-158.30204 66.351021z" fill="#D2F4FF" /><path d="M512 284.734694c-13.583673 0-25.077551-10.971429-25.077551-25.077551v-120.163265c0-13.583673 10.971429-25.077551 25.077551-25.077551s25.077551 10.971429 25.077551 25.077551v120.163265c0 14.106122-11.493878 25.077551-25.077551 25.077551z" fill="#7BD4EF" /><path d="M423.183673 194.35102c-96.653061 0-175.020408 78.367347-175.020408 175.020409v260.179591c0 96.653061 78.367347 175.020408 175.020408 175.020409h177.632654c96.653061 0 175.020408-78.367347 175.020408-175.020409V368.84898c0-96.653061-78.367347-175.020408-175.020408-175.020409l-177.632654 0.522449z" fill="#7BD4EF" /><path d="M248.163265 368.84898v260.179591c0 96.653061 78.367347 175.020408 175.020408 175.020409h177.632654c96.653061 0 175.020408-78.367347 175.020408-175.020409V368.84898c-100.832653 45.97551-145.240816 2.612245-228.832653 2.612244s-199.053061 56.42449-298.840817-2.612244z" fill="#E5404F" /><path d="M655.673469 646.791837c0 13.583673 10.971429 25.077551 25.077551 25.077551h89.861225c3.657143-13.583673 5.22449-27.689796 5.22449-42.840817V621.714286h-95.085715c-13.583673 0-25.077551 10.971429-25.077551 25.077551zM655.673469 556.930612c0 13.583673 10.971429 25.077551 25.077551 25.077551h95.085715v-50.155102h-95.085715c-13.583673 0-25.077551 10.971429-25.077551 25.077551zM680.75102 441.469388c-13.583673 0-25.077551 10.971429-25.077551 25.077551s10.971429 25.077551 25.077551 25.077551h95.085715v-50.155102h-95.085715z" fill="#ED8CA1" /><path d="M512 909.061224c-13.583673 0-25.077551-10.971429-25.077551-25.077551v-159.869387c0-13.583673 10.971429-25.077551 25.077551-25.077551s25.077551 10.971429 25.077551 25.077551v159.869387c0 14.106122-11.493878 25.077551-25.077551 25.077551z" fill="#AA1D32" /><path d="M568.42449 749.191837H455.57551c-13.583673 0-25.077551-10.971429-25.077551-25.077551s10.971429-25.077551 25.077551-25.077551h112.84898c13.583673 0 25.077551 10.971429 25.077551 25.077551s-10.971429 25.077551-25.077551 25.077551z" fill="#AA1D32" /></svg>